<?xml version="1.0" encoding="UTF-8"?>
<svg version="1.1" xmlns="http://www.w3.org/2000/svg" xmlns:xlink="http://www.w3.org/1999/xlink">
<defs>
<linearGradient id="paint0_linear" x1="21.8" y1="8.709" x2="5.017" y2="25.492" gradientUnits="userSpaceOnUse"><stop stop-color="#00A0FF"/><stop offset=".007" stop-color="#00A1FF"/><stop offset=".26" stop-color="#00BEFF"/><stop offset=".512" stop-color="#00D2FF"/><stop offset=".76" stop-color="#00DFFF"/><stop offset="1" stop-color="#00E3FF"/></linearGradient><linearGradient id="paint1_linear" x1="33.834" y1="20.001" x2="9.637" y2="20.001" gradientUnits="userSpaceOnUse"><stop stop-color="#FFE000"/><stop offset=".409" stop-color="#FFBD00"/><stop offset=".775" stop-color="orange"/><stop offset="1" stop-color="#FF9C00"/></linearGradient><linearGradient id="paint2_linear" x1="24.827" y1="22.296" x2="2.069" y2="45.054" gradientUnits="userSpaceOnUse"><stop stop-color="#FF3A44"/><stop offset="1" stop-color="#C31162"/></linearGradient><linearGradient id="paint3_linear" x1="7.297" y1=".176" x2="17.46" y2="10.338" gradientUnits="userSpaceOnUse"><stop stop-color="#32A071"/><stop offset=".069" stop-color="#2DA771"/><stop offset=".476" stop-color="#15CF74"/><stop offset=".801" stop-color="#06E775"/><stop offset="1" stop-color="#00F076"/></linearGradient><clipPath id="clip0"><path fill="#fff" d="M0 0h135v40H0z"/></clipPath>
</defs>
<symbol id="i-chart" viewBox="0 0 600 371" fill="none" stroke-linecap="square" stroke-miterlimit="10" xmlns="http://www.w3.org/2000/svg"><path fill="#fff" d="M0 0h600v371H0V0z"/><path fill="#4285f4" d="M300 18.55c72.327 0 136.429 46.572 158.779 115.36L300 185.5z"/><path fill="#ea4335" d="M458.779 133.91a166.95 166.95 0 01-23.714 149.72L300 185.5z"/><path fill="#7baaf7" d="M248.41 26.721A166.95 166.95 0 01300 18.55V185.5z"/><path fill="#46bdc6" d="M164.935 87.37A166.95 166.95 0 01248.41 26.72L300 185.5z"/><path fill="#ff6d01" d="M141.221 133.91a166.95 166.95 0 0123.714-46.54L300 185.5z"/><path fill="#34a853" d="M164.935 283.63a166.95 166.95 0 01-23.714-149.72L300 185.5z"/><path fill="#fbbc04" d="M435.065 283.63a166.95 166.95 0 01-270.13 0L300 185.5z"/><path fill="#1a1a1a" d="M25.113 20.956h1.14v4.969q0 1.297-.297 2.063-.297.75-1.062 1.234-.766.469-2 .469-1.203 0-1.985-.407-.765-.421-1.093-1.203-.328-.797-.328-2.156v-4.969h1.14v4.953q0 1.125.203 1.657.219.53.719.828.516.281 1.25.281 1.25 0 1.781-.563.532-.578.532-2.203v-4.953zm2.812 6.735l1.031-.157q.094.625.485.954.406.328 1.14.328.719 0 1.063-.282.36-.296.36-.703 0-.36-.313-.562-.22-.14-1.078-.36-1.157-.296-1.61-.5-.437-.218-.672-.593-.234-.375-.234-.844 0-.406.187-.766.188-.36.516-.593.25-.172.672-.297.422-.125.922-.125.719 0 1.265.218.563.204.828.563.266.36.36.953l-1.031.14q-.063-.468-.407-.734-.328-.281-.953-.281-.718 0-1.031.25-.313.234-.313.563 0 .203.126.359.14.172.406.281.156.063.937.266 1.125.312 1.563.5.437.187.687.547.25.359.25.906 0 .531-.312 1-.297.453-.875.719-.578.25-1.313.25-1.218 0-1.86-.5-.624-.516-.796-1.5zm11.672-.141l1.094.125q-.25.953-.954 1.484-.703.532-1.78.532-1.36 0-2.173-.844-.797-.844-.797-2.36 0-1.562.813-2.421.813-.875 2.094-.875 1.25 0 2.031.843.797.844.797 2.391v.281h-4.64q.062 1.032.577 1.578.516.532 1.297.532.578 0 .985-.297.421-.313.656-.969zm-3.453-1.703h3.468q-.062-.797-.39-1.188-.516-.609-1.313-.609-.734 0-1.234.484-.484.485-.531 1.313zm6.187 3.703v-6.219h.953v.938q.36-.656.657-.86.312-.218.687-.218.531 0 1.078.328l-.36.984q-.39-.234-.765-.234-.36 0-.64.219-.266.203-.375.578-.188.562-.188 1.218v3.266h-1.047zm7.016-7.375v-1.219h1.062v1.219h-1.062zm0 7.375v-6.219h1.062v6.219h-1.062zm3 0v-6.219h.937v.875q.688-1.015 1.985-1.015.562 0 1.031.203.484.203.719.531.234.328.328.766.047.297.047 1.03v3.829h-1.047v-3.781q0-.656-.125-.969-.125-.313-.438-.5-.312-.203-.734-.203-.672 0-1.172.437-.484.422-.484 1.61v3.406h-1.047zm11.062-2.281l1.032.14q-.172 1.063-.875 1.672-.704.61-1.72.61-1.28 0-2.062-.828-.765-.844-.765-2.407 0-1 .328-1.75.344-.765 1.015-1.14.688-.375 1.5-.375 1 0 1.641.515.656.5.844 1.453l-1.031.157q-.141-.625-.516-.938-.375-.328-.906-.328-.797 0-1.297.578-.5.563-.5 1.797 0 1.266.484 1.828.485.563 1.25.563.625 0 1.031-.375.422-.375.547-1.172zm6.188.281l1.094.125q-.25.953-.954 1.484-.703.532-1.78.532-1.36 0-2.173-.844-.797-.844-.797-2.36 0-1.562.813-2.421.813-.875 2.094-.875 1.25 0 2.031.843.797.844.797 2.391v.281h-4.64q.062 1.032.577 1.578.516.532 1.297.532.578 0 .985-.297.421-.313.656-.969zm-3.453-1.703h3.468q-.062-.797-.39-1.188-.516-.609-1.313-.609-.734 0-1.234.484-.484.485-.531 1.313zm6.203 3.703v-6.219h.937v.875q.688-1.015 1.985-1.015.562 0 1.031.203.484.203.719.531.234.328.328.766.047.297.047 1.03v3.829h-1.047v-3.781q0-.656-.125-.969-.125-.313-.438-.5-.312-.203-.734-.203-.672 0-1.172.437-.484.422-.484 1.61v3.406h-1.047zm9.297-.938l.156.922q-.453.094-.797.094-.578 0-.89-.172-.313-.187-.454-.484-.125-.297-.125-1.25v-3.578h-.765v-.813h.765v-1.547l1.047-.625v2.172h1.063v.813H80.58v3.64q0 .454.047.579.063.125.188.203.125.078.359.078.188 0 .469-.031zm.703-6.437v-1.219h1.062v1.219h-1.062zm0 7.375v-6.219h1.062v6.219h-1.062zm4.719 0l-2.36-6.219h1.11l1.343 3.719q.203.61.391 1.25.14-.484.39-1.172l1.391-3.797h1.078L88.05 29.55h-.984zm7.53-2l1.095.125q-.25.953-.954 1.484-.703.532-1.78.532-1.36 0-2.173-.844-.797-.844-.797-2.36 0-1.562.813-2.421.813-.875 2.094-.875 1.25 0 2.031.843.797.844.797 2.391v.281h-4.64q.062 1.032.577 1.578.516.532 1.297.532.578 0 .985-.297.421-.313.656-.969zm-3.452-1.703h3.468q-.062-.797-.39-1.188-.516-.609-1.313-.609-.734 0-1.234.484-.484.485-.531 1.313z"/><path fill="#9e9e9e" d="M19.05 44.3l1.11-.094q.124.813.562 1.219.453.406 1.094.406.75 0 1.28-.578.532-.578.532-1.516 0-.906-.515-1.421-.5-.532-1.329-.532-.5 0-.921.235-.407.234-.641.593l-.985-.125.829-4.406h4.28v1H20.91l-.453 2.313q.766-.547 1.61-.547 1.125 0 1.89.781.782.781.782 2.016 0 1.156-.672 2.015-.828 1.032-2.25 1.032-1.172 0-1.922-.657-.735-.656-.844-1.734zm7.563 2.25v-1.203h1.203v1.203q0 .656-.235 1.063-.234.421-.734.64l-.297-.453q.328-.14.484-.438.157-.28.188-.812h-.61zm2.437-4.234q0-1.532.313-2.454.312-.937.921-1.437.625-.5 1.563-.5.687 0 1.203.281.531.281.875.813.344.515.531 1.265.188.75.188 2.032 0 1.515-.313 2.437-.297.922-.922 1.438-.609.5-1.562.5-1.235 0-1.953-.891-.844-1.063-.844-3.484zm1.078 0q0 2.109.5 2.812.5.703 1.219.703.734 0 1.219-.703.5-.703.5-2.812 0-2.125-.5-2.813-.485-.703-1.235-.703-.718 0-1.156.61-.547.78-.547 2.906zm6.125-2.297q0-.922.453-1.563.469-.64 1.344-.64.813 0 1.344.578.531.578.531 1.687 0 1.094-.547 1.688-.531.578-1.312.578-.782 0-1.297-.578-.516-.578-.516-1.75zm1.828-1.485q-.39 0-.656.344-.25.344-.25 1.25 0 .828.25 1.172.266.328.656.328.406 0 .656-.344.266-.343.266-1.234 0-.844-.266-1.172-.265-.344-.656-.344zm0 8.328l4.703-9.046h.86l-4.688 9.046h-.875zm3.719-2.328q0-.922.453-1.562.469-.64 1.36-.64.812 0 1.343.577.531.563.531 1.688 0 1.094-.546 1.687-.532.578-1.329.578-.765 0-1.296-.578-.516-.578-.516-1.75zm1.844-1.484q-.407 0-.672.344-.25.343-.25 1.25 0 .812.265 1.156.266.344.657.344.39 0 .656-.344t.266-1.25q0-.828-.266-1.156-.266-.344-.656-.344z"/><path stroke="#757575" stroke-linecap="butt" d="M18.55 34.05h108.5l148.14-5.2"/><path fill="#9e9e9e" d="M277.19 28.85a2 2 0 10-4 0 2 2 0 004 0"/><path fill="#1a1a1a" d="M19.472 60.55v-8.594h3.25q.844 0 1.297.078.64.11 1.062.407.438.296.688.828.265.531.265 1.172 0 1.093-.703 1.859-.687.75-2.515.75h-2.203v3.5h-1.141zm1.14-4.5h2.22q1.109 0 1.562-.406.469-.422.469-1.172 0-.531-.282-.906-.265-.391-.703-.516-.297-.078-1.062-.078h-2.203v3.078zm6.704 4.5v-8.594h1.062v8.594h-1.062zm7.093-.766q-.593.5-1.14.703-.532.204-1.157.204-1.03 0-1.578-.5-.546-.5-.546-1.282 0-.453.203-.828.203-.39.547-.61.343-.233.765-.343.297-.094.938-.172 1.265-.14 1.875-.36v-.265q0-.656-.297-.922-.407-.343-1.203-.343-.735 0-1.094.265-.36.25-.531.906l-1.032-.14q.141-.656.47-1.063.327-.406.937-.625.609-.218 1.406-.218.797 0 1.297.187.5.188.734.469.234.281.328.719.047.265.047.968v1.407q0 1.468.063 1.859.078.39.28.75h-1.108q-.157-.328-.204-.766zm-.093-2.359q-.579.234-1.72.406-.655.094-.921.219-.266.11-.422.328-.14.219-.14.5 0 .422.312.703.328.281.937.281.61 0 1.079-.265.484-.266.703-.735.172-.359.172-1.046v-.391zm2.984 5.516l-.125-.985q.344.094.61.094.343 0 .546-.125.219-.11.36-.313.093-.171.328-.796.015-.079.093-.25l-2.375-6.235h1.141l1.297 3.594q.25.688.453 1.453.188-.734.438-1.422l1.328-3.625h1.047l-2.36 6.328q-.39 1.016-.594 1.407-.28.53-.656.765-.36.25-.86.25-.296 0-.671-.14zm10.344-3.329l.156.922q-.453.094-.797.094-.578 0-.89-.172-.313-.187-.454-.484-.125-.297-.125-1.25v-3.578h-.765v-.813h.765v-1.547l1.047-.625v2.172h1.063v.813H46.58v3.64q0 .453.047.578.063.125.188.204.125.078.359.078.188 0 .469-.032zm.312-2.171q0-1.735.953-2.563.797-.687 1.953-.687 1.282 0 2.094.843.828.828.828 2.313 0 1.203-.359 1.89-.36.688-1.063 1.079-.687.375-1.5.375-1.296 0-2.109-.829-.797-.843-.797-2.421zm1.078 0q0 1.187.516 1.78.531.595 1.313.595.796 0 1.312-.594t.516-1.813q0-1.156-.532-1.75-.515-.593-1.297-.593-.78 0-1.312.593-.516.578-.516 1.782zm13.563 1.109l1.094.125q-.25.953-.954 1.484-.703.532-1.78.532-1.36 0-2.173-.844-.797-.844-.797-2.36 0-1.562.813-2.421.813-.875 2.094-.875 1.25 0 2.031.843.797.844.797 2.391v.281h-4.64q.062 1.031.577 1.578.516.532 1.297.532.578 0 .985-.297.421-.313.656-.969zm-3.453-1.703h3.468q-.062-.797-.39-1.188-.516-.609-1.313-.609-.734 0-1.234.484-.484.485-.531 1.313zm10.265 2.937q-.593.5-1.14.703-.532.204-1.157.204-1.03 0-1.578-.5-.547-.5-.547-1.282 0-.453.204-.828.203-.39.546-.61.344-.233.766-.343.297-.094.938-.172 1.265-.14 1.875-.36v-.265q0-.656-.297-.922-.407-.343-1.203-.343-.735 0-1.094.265-.36.25-.531.906l-1.032-.14q.141-.656.47-1.063.327-.406.937-.625.609-.218 1.406-.218.797 0 1.297.187.5.188.734.469.234.281.328.719.047.265.047.968v1.407q0 1.468.063 1.859.078.39.28.75h-1.109q-.156-.328-.203-.766zm-.093-2.359q-.579.234-1.72.406-.655.094-.921.219-.266.11-.422.328-.14.219-.14.5 0 .422.312.703.328.281.938.281.609 0 1.078-.265.484-.266.703-.735.172-.359.172-1.046v-.391zm3.015 3.125v-6.219h.953v.938q.36-.657.657-.86.312-.218.687-.218.531 0 1.078.328l-.36.984q-.39-.234-.765-.234-.36 0-.64.218-.266.204-.375.579-.188.562-.188 1.218v3.266h-1.047zm4.016 0v-6.219h.937v.875q.688-1.015 1.985-1.015.562 0 1.031.203.484.203.719.531.234.328.328.766.047.296.047 1.03v3.829h-1.047v-3.781q0-.657-.125-.969-.125-.313-.438-.5-.312-.203-.734-.203-.672 0-1.172.437-.484.422-.484 1.61v3.406h-1.047z"/><path fill="#9e9e9e" d="M23.019 77.55h-1.047v-6.719q-.39.36-1.016.735-.61.359-1.093.53v-1.015q.875-.422 1.53-1 .673-.594.954-1.156h.672v8.625zm3.031-4.234q0-1.532.313-2.454.312-.937.921-1.437.625-.5 1.563-.5.687 0 1.203.281.531.281.875.813.344.515.531 1.265.188.75.188 2.032 0 1.515-.313 2.437-.297.922-.922 1.438-.609.5-1.562.5-1.235 0-1.953-.891-.844-1.063-.844-3.484zm1.078 0q0 2.109.5 2.812.5.703 1.219.703.734 0 1.219-.703.5-.703.5-2.812 0-2.125-.5-2.813-.485-.703-1.235-.703-.718 0-1.156.61-.547.78-.547 2.906zm6.484 4.234v-1.203h1.204v1.203q0 .656-.235 1.063-.234.421-.734.64l-.297-.453q.328-.14.484-.438.157-.28.188-.812h-.61zm2.438-4.234q0-1.532.313-2.454.312-.937.921-1.437.625-.5 1.563-.5.687 0 1.203.281.531.281.875.813.344.515.531 1.265.188.75.188 2.032 0 1.515-.313 2.437-.297.922-.922 1.438-.609.5-1.562.5-1.235 0-1.953-.891-.844-1.063-.844-3.484zm1.078 0q0 2.109.5 2.812.5.703 1.219.703.734 0 1.219-.703.5-.703.5-2.812 0-2.125-.5-2.813-.485-.703-1.235-.703-.719 0-1.156.61-.547.78-.547 2.906zm6.125-2.297q0-.922.453-1.563.469-.64 1.344-.64.813 0 1.344.578.531.578.531 1.687 0 1.094-.547 1.688-.531.578-1.312.578-.782 0-1.297-.578-.516-.578-.516-1.75zm1.828-1.485q-.39 0-.656.344-.25.344-.25 1.25 0 .828.25 1.172.266.328.656.328.406 0 .656-.344.266-.343.266-1.234 0-.844-.266-1.172-.265-.344-.656-.344zm0 8.328l4.703-9.046h.86l-4.688 9.046h-.875zm3.719-2.328q0-.922.453-1.562.469-.64 1.36-.64.812 0 1.343.577.531.563.531 1.688 0 1.094-.546 1.687-.532.578-1.329.578-.765 0-1.296-.578-.516-.578-.516-1.75zm1.844-1.484q-.407 0-.672.344-.25.343-.25 1.25 0 .812.265 1.156.266.344.657.344.39 0 .656-.344t.266-1.25q0-.828-.266-1.156-.266-.344-.656-.344z"/><path stroke="#757575" stroke-linecap="butt" d="M18.55 65.05h108.5l79.726-7.862"/><path fill="#9e9e9e" d="M208.776 57.188a2 2 0 10-4 0 2 2 0 004 0"/><path fill="#1a1a1a" d="M25.613 105.98l1.125.297q-.36 1.39-1.282 2.125-.922.735-2.265.735-1.391 0-2.266-.563-.875-.562-1.328-1.625-.453-1.078-.453-2.312 0-1.344.515-2.344.516-1 1.454-1.516.953-.515 2.093-.515 1.282 0 2.157.656.89.656 1.234 1.844l-1.125.265q-.297-.937-.875-1.36-.563-.437-1.422-.437-.984 0-1.656.485-.656.468-.938 1.265-.265.797-.265 1.657 0 1.093.312 1.906.328.812 1 1.219.672.406 1.469.406.953 0 1.61-.547.671-.547.905-1.64zm2.343-.093q0-1.735.953-2.563.797-.687 1.954-.687 1.28 0 2.093.843.828.828.828 2.313 0 1.203-.359 1.89-.36.688-1.063 1.079-.687.375-1.5.375-1.296 0-2.109-.829-.797-.843-.797-2.421zm1.078 0q0 1.187.516 1.78.531.595 1.313.595.796 0 1.312-.594t.516-1.813q0-1.156-.532-1.75-.515-.593-1.296-.593-.782 0-1.313.593-.516.578-.516 1.782zm6.313 3.109v-6.219h.937v.875q.297-.469.782-.734.484-.281 1.109-.281.688 0 1.125.28.453.282.625.798.75-1.078 1.922-1.078.937 0 1.422.515.5.5.5 1.578v4.266h-1.047v-3.922q0-.625-.11-.906-.093-.281-.359-.453t-.64-.172q-.657 0-1.094.437-.422.438-.422 1.407v3.609h-1.063v-4.047q0-.703-.265-1.047-.25-.36-.828-.36-.454 0-.829.235-.375.235-.546.688-.172.453-.172 1.297v3.234h-1.047zm11 0v-6.219h.937v.875q.297-.469.782-.734.484-.281 1.109-.281.688 0 1.125.28.453.282.625.798.75-1.078 1.922-1.078.937 0 1.422.515.5.5.5 1.578v4.266h-1.047v-3.922q0-.625-.11-.906-.093-.281-.359-.453t-.64-.172q-.657 0-1.094.437-.422.438-.422 1.407v3.609h-1.063v-4.047q0-.703-.265-1.047-.25-.36-.828-.36-.454 0-.829.235-.375.235-.546.688-.172.453-.172 1.297v3.234h-1.047zm15.078 0v-.922q-.734 1.063-1.984 1.063-.547 0-1.032-.204-.468-.218-.703-.53-.234-.329-.328-.798-.062-.297-.062-.984v-3.844h1.062v3.453q0 .813.063 1.11.093.406.406.656.328.234.812.234.47 0 .875-.234.422-.25.594-.672.188-.422.188-1.219v-3.328h1.046v6.219h-.937zm2.922 0v-6.219h.937v.875q.688-1.015 1.985-1.015.562 0 1.031.203.484.203.719.531.234.328.328.766.047.296.047 1.03v3.829h-1.047v-3.781q0-.657-.125-.969-.125-.313-.438-.5-.312-.203-.734-.203-.672 0-1.172.437-.484.422-.484 1.61v3.406h-1.047zm7-7.375v-1.219h1.062v1.219h-1.062zm0 7.375v-6.219h1.062v6.219h-1.062zm5.297-.938l.156.922q-.453.094-.797.094-.578 0-.89-.172-.313-.187-.454-.484-.125-.297-.125-1.25v-3.578h-.765v-.813h.765v-1.547l1.047-.625v2.172h1.063v.813H75.58v3.64q0 .453.047.578.063.125.188.204.125.078.359.078.188 0 .469-.032zm.656 3.329l-.125-.985q.344.094.61.094.343 0 .546-.125.219-.11.36-.313.093-.171.328-.796.015-.079.093-.25l-2.374-6.235h1.14l1.297 3.594q.25.687.453 1.453.188-.734.438-1.422l1.328-3.625h1.047l-2.36 6.328q-.39 1.016-.594 1.407-.28.53-.656.765-.36.25-.86.25-.296 0-.671-.14zm12.953-3.407q-.516.578-1.14.875-.61.282-1.329.282-1.312 0-2.093-.891-.625-.719-.625-1.625 0-.797.515-1.438.516-.64 1.531-1.125-.578-.671-.78-1.078-.188-.422-.188-.812 0-.766.61-1.328.608-.578 1.53-.578.875 0 1.422.546.563.532.563 1.282 0 1.234-1.61 2.093l1.532 1.97q.265-.516.406-1.204l1.11.234q-.282 1.125-.766 1.86.593.781 1.343 1.312l-.718.844q-.641-.422-1.313-1.219zm-2.14-4.468q.687-.407.874-.704.204-.312.204-.687 0-.438-.282-.719-.265-.281-.687-.281-.422 0-.719.281-.281.281-.281.672 0 .203.11.422.109.219.312.469l.468.547zm1.484 3.64l-1.938-2.406q-.859.516-1.156.953-.297.438-.297.86 0 .53.406 1.093.422.563 1.188.563.469 0 .969-.297.515-.297.828-.766z"/><path fill="#9e9e9e" d="M19.05 123.746l1.11-.094q.124.813.562 1.219.453.406 1.094.406.75 0 1.28-.578.532-.578.532-1.516 0-.906-.515-1.421-.5-.532-1.329-.532-.5 0-.921.235-.407.234-.641.593l-.985-.125.829-4.406h4.28v1H20.91l-.453 2.313q.766-.547 1.61-.547 1.125 0 1.89.781.782.781.782 2.016 0 1.156-.672 2.015-.828 1.032-2.25 1.032-1.172 0-1.922-.657-.735-.656-.844-1.734zm7.563 2.25v-1.203h1.203v1.203q0 .656-.235 1.062-.234.422-.734.641l-.297-.453q.328-.14.484-.438.157-.28.188-.812h-.61zm2.437-4.234q0-1.532.313-2.454.312-.937.921-1.437.625-.5 1.563-.5.687 0 1.203.281.531.281.875.813.344.515.531 1.265.188.75.188 2.032 0 1.515-.313 2.437-.297.922-.922 1.438-.609.5-1.562.5-1.235 0-1.953-.891-.844-1.063-.844-3.484zm1.078 0q0 2.109.5 2.812.5.703 1.219.703.734 0 1.219-.703.5-.703.5-2.812 0-2.125-.5-2.813-.485-.703-1.235-.703-.718 0-1.156.61-.547.78-.547 2.906zm6.125-2.297q0-.922.453-1.563.469-.64 1.344-.64.813 0 1.344.578.531.578.531 1.687 0 1.094-.547 1.688-.531.578-1.312.578-.782 0-1.297-.578-.516-.578-.516-1.75zm1.828-1.485q-.39 0-.656.344-.25.344-.25 1.25 0 .828.25 1.172.266.328.656.328.406 0 .656-.344.266-.343.266-1.234 0-.844-.266-1.172-.265-.344-.656-.344zm0 8.328l4.703-9.046h.86l-4.688 9.046h-.875zm3.719-2.328q0-.922.453-1.562.469-.64 1.36-.64.812 0 1.343.577.531.563.531 1.688 0 1.094-.546 1.687-.532.578-1.329.578-.765 0-1.296-.578-.516-.578-.516-1.75zm1.844-1.484q-.407 0-.672.344-.25.343-.25 1.25 0 .812.265 1.156.266.344.657.344.39 0 .656-.344t.266-1.25q0-.828-.266-1.156-.266-.344-.656-.344z"/><path stroke="#757575" stroke-linecap="butt" d="M18.55 113.496H158.684"/><path fill="#9e9e9e" d="M160.684 113.496a2 2 0 10-4 0 2 2 0 004 0"/><path fill="#1a1a1a" d="M19.503 205.81v-8.593h6.203v1.016h-5.062v2.625h4.75v1.015h-4.75v2.922h5.265v1.016h-6.406zm11.906-2.28l1.032.14q-.172 1.063-.875 1.672-.703.61-1.72.61-1.28 0-2.062-.829-.765-.843-.765-2.406 0-1 .328-1.75.344-.765 1.015-1.14.688-.375 1.5-.375 1 0 1.641.515.656.5.844 1.453l-1.031.157q-.141-.625-.516-.938-.375-.328-.906-.328-.797 0-1.297.578-.5.563-.5 1.797 0 1.266.484 1.828.485.563 1.25.563.625 0 1.032-.375.421-.375.546-1.172zm1.547-.828q0-1.735.953-2.563.797-.687 1.953-.687 1.282 0 2.094.843.828.828.828 2.313 0 1.203-.359 1.89-.36.688-1.063 1.079-.687.375-1.5.375-1.296 0-2.109-.829-.797-.843-.797-2.421zm1.078 0q0 1.187.516 1.78.531.595 1.313.595.796 0 1.312-.594t.516-1.813q0-1.156-.532-1.75-.515-.593-1.297-.593-.78 0-1.312.593-.516.578-.516 1.782zm5.891 1.25l1.031-.157q.094.625.485.953.406.329 1.14.329.719 0 1.063-.282.36-.297.36-.703 0-.36-.313-.562-.22-.141-1.079-.36-1.156-.297-1.609-.5-.437-.218-.672-.593-.234-.375-.234-.844 0-.406.187-.766.188-.36.516-.594.25-.171.672-.296.422-.125.922-.125.718 0 1.265.218.563.203.828.563.266.36.36.953l-1.031.14q-.063-.468-.407-.734-.328-.281-.953-.281-.719 0-1.031.25-.313.234-.313.562 0 .204.125.36.141.172.407.281.156.063.937.266 1.125.312 1.563.5.437.187.687.547.25.359.25.906 0 .531-.312 1-.297.453-.875.719-.578.25-1.313.25-1.219 0-1.86-.5-.624-.516-.796-1.5zm7.375 4.25l-.125-.985q.344.094.61.094.343 0 .546-.125.219-.11.36-.313.093-.171.328-.796.015-.079.093-.25l-2.375-6.235h1.141l1.297 3.594q.25.687.453 1.453.188-.734.438-1.422l1.328-3.625h1.047l-2.36 6.328q-.39 1.016-.594 1.407-.28.53-.656.765-.36.25-.86.25-.296 0-.671-.14zm4.625-4.25l1.031-.157q.094.625.485.953.406.329 1.14.329.719 0 1.063-.282.36-.297.36-.703 0-.36-.313-.562-.22-.141-1.079-.36-1.156-.297-1.609-.5-.437-.218-.672-.593-.234-.375-.234-.844 0-.406.187-.766.188-.36.516-.594.25-.171.672-.296.422-.125.922-.125.718 0 1.265.218.563.203.828.563.266.36.36.953l-1.031.14q-.063-.468-.407-.734-.328-.281-.953-.281-.719 0-1.031.25-.313.234-.313.562 0 .204.125.36.141.172.407.281.156.063.937.266 1.125.312 1.563.5.437.187.687.547.25.359.25.906 0 .531-.312 1-.297.453-.875.719-.578.25-1.313.25-1.219 0-1.86-.5-.624-.516-.796-1.5zm9.719.921l.156.922q-.453.094-.797.094-.578 0-.89-.172-.313-.187-.454-.484-.125-.297-.125-1.25v-3.578h-.765v-.813h.765v-1.547l1.047-.625v2.172h1.063v.813H60.58v3.64q0 .453.047.578.063.125.188.204.125.078.359.078.188 0 .469-.032zm4.953-1.062l1.094.125q-.25.953-.954 1.484-.703.532-1.78.532-1.36 0-2.173-.844-.797-.844-.797-2.36 0-1.562.813-2.421.813-.875 2.094-.875 1.25 0 2.031.843.797.844.797 2.39v.282h-4.64q.062 1.031.577 1.578.516.532 1.297.532.578 0 .985-.297.421-.313.656-.97zm-3.453-1.703h3.468q-.062-.797-.39-1.188-.516-.61-1.313-.61-.734 0-1.234.485-.484.485-.531 1.313zm6.203 3.703v-6.219h.937v.875q.297-.469.782-.734.484-.281 1.109-.281.688 0 1.125.28.453.282.625.798.75-1.078 1.922-1.078.937 0 1.422.515.5.5.5 1.578v4.266h-1.047v-3.922q0-.625-.11-.906-.093-.281-.359-.453t-.64-.172q-.657 0-1.094.437-.422.438-.422 1.407v3.609h-1.063v-4.047q0-.703-.265-1.047-.25-.36-.828-.36-.454 0-.829.235-.374.235-.546.688-.172.453-.172 1.297v3.234h-1.047z"/><path fill="#9e9e9e" d="M23.019 222.81h-1.047v-6.718q-.39.36-1.016.735-.61.359-1.093.53v-1.015q.875-.422 1.53-1 .673-.594.954-1.156h.672v8.625zm3.031-2.25l1.11-.093q.124.813.562 1.219.453.406 1.094.406.75 0 1.28-.578.532-.578.532-1.516 0-.906-.515-1.421-.5-.532-1.329-.532-.5 0-.921.235-.407.234-.641.593l-.985-.125.829-4.406h4.28v1H27.91l-.453 2.313q.766-.547 1.61-.547 1.125 0 1.89.781.782.781.782 2.016 0 1.156-.672 2.015-.828 1.032-2.25 1.032-1.172 0-1.922-.657-.735-.656-.844-1.734zm7.562 2.25v-1.202h1.204v1.203q0 .656-.235 1.062-.234.422-.734.641l-.297-.453q.328-.14.484-.438.157-.28.188-.812h-.61zm2.438-4.233q0-1.532.313-2.454.312-.937.921-1.437.625-.5 1.563-.5.687 0 1.203.281.531.281.875.813.344.515.531 1.265.188.75.188 2.032 0 1.515-.313 2.437-.297.922-.922 1.438-.609.5-1.562.5-1.235 0-1.953-.891-.844-1.063-.844-3.484zm1.078 0q0 2.109.5 2.812.5.703 1.219.703.734 0 1.219-.703.5-.703.5-2.812 0-2.125-.5-2.813-.485-.703-1.235-.703-.719 0-1.156.61-.547.78-.547 2.906zm6.125-2.297q0-.922.453-1.563.469-.64 1.344-.64.813 0 1.344.578.531.578.531 1.687 0 1.094-.547 1.688-.531.578-1.312.578-.782 0-1.297-.578-.516-.578-.516-1.75zm1.828-1.485q-.39 0-.656.344-.25.344-.25 1.25 0 .828.25 1.172.266.328.656.328.406 0 .656-.344.266-.343.266-1.234 0-.844-.266-1.172-.265-.344-.656-.344zm0 8.328l4.703-9.046h.86l-4.688 9.046h-.875zm3.719-2.328q0-.922.453-1.562.469-.64 1.36-.64.812 0 1.343.577.531.563.531 1.688 0 1.094-.546 1.687-.532.578-1.329.578-.765 0-1.296-.578-.516-.578-.516-1.75zm1.844-1.484q-.407 0-.672.344-.25.343-.25 1.25 0 .812.265 1.156.266.344.657.344.39 0 .656-.344t.266-1.25q0-.828-.266-1.156-.266-.344-.656-.344z"/><path stroke="#757575" stroke-linecap="butt" d="M18.55 210.31h124.8"/><path fill="#9e9e9e" d="M145.35 210.31a2 2 0 10-4 0 2 2 0 004 0"/><path fill="#1a1a1a" d="M522.56 52.688V45.11h-2.829v-1.016h6.813v1.016H523.7v7.578h-1.14zm4.296-3.11q0-1.734.953-2.562.797-.687 1.954-.687 1.28 0 2.093.843.828.828.828 2.313 0 1.203-.359 1.89-.36.688-1.063 1.079-.687.375-1.5.375-1.296 0-2.109-.829-.797-.843-.797-2.421zm1.078 0q0 1.188.516 1.782.531.594 1.313.594.796 0 1.312-.594t.516-1.813q0-1.156-.532-1.75-.515-.593-1.296-.593-.782 0-1.313.593-.516.578-.516 1.782zm6.313 3.11v-8.594h1.062V49l2.485-2.53h1.375l-2.39 2.296 2.624 3.922h-1.297l-2.062-3.188-.735.72v2.468h-1.062zm10.25-2l1.094.125q-.25.953-.953 1.484-.704.532-1.782.532-1.36 0-2.172-.844-.796-.844-.796-2.36 0-1.562.812-2.421.813-.875 2.094-.875 1.25 0 2.031.843.797.844.797 2.39v.282h-4.64q.062 1.031.577 1.578.516.532 1.297.532.578 0 .985-.297.422-.313.656-.97zm-3.453-1.703h3.469q-.063-.797-.391-1.188-.516-.61-1.313-.61-.734 0-1.234.485-.484.485-.531 1.313zm6.203 3.703v-6.219h.937v.875q.688-1.015 1.985-1.015.562 0 1.031.203.484.203.719.53.234.329.328.767.047.296.047 1.03v3.829h-1.047v-3.781q0-.657-.125-.97-.125-.312-.438-.5-.312-.202-.734-.202-.672 0-1.172.437-.484.422-.484 1.61v3.406h-1.047zm9.75-2.766l1.062-.093q.079.656.36 1.062.281.406.86.672.593.25 1.327.25.64 0 1.14-.188.5-.203.735-.53.25-.345.25-.735 0-.406-.234-.703-.234-.313-.766-.516-.36-.14-1.547-.422-1.171-.281-1.64-.531-.625-.328-.922-.797-.297-.484-.297-1.078 0-.64.36-1.203.374-.578 1.078-.86.718-.296 1.578-.296.953 0 1.687.312.735.297 1.125.906.39.594.422 1.344l-1.094.078q-.093-.812-.61-1.219-.5-.421-1.483-.421-1.032 0-1.5.375-.47.375-.47.906 0 .469.329.765.328.297 1.703.61 1.39.312 1.906.547.75.359 1.11.89.359.516.359 1.219 0 .688-.39 1.297-.391.594-1.126.937-.734.329-1.656.329-1.172 0-1.969-.329-.78-.343-1.234-1.03-.438-.688-.453-1.548zm12.312 2q-.593.5-1.14.703-.531.204-1.156.204-1.032 0-1.579-.5-.546-.5-.546-1.282 0-.453.203-.828.203-.39.547-.61.343-.234.765-.343.297-.094.938-.172 1.265-.14 1.875-.36v-.265q0-.656-.297-.922-.406-.343-1.203-.343-.735 0-1.094.265-.36.25-.531.906l-1.032-.14q.141-.656.47-1.063.327-.406.937-.625.609-.218 1.406-.218.797 0 1.297.187.5.188.734.469.235.281.328.719.047.265.047.968v1.407q0 1.468.063 1.859.078.39.28.75h-1.108q-.157-.328-.204-.766zm-.093-2.36q-.578.235-1.72.407-.655.094-.921.219-.266.11-.422.328-.14.219-.14.5 0 .422.312.703.328.281.938.281.609 0 1.078-.265.484-.266.703-.735.172-.359.172-1.046v-.391zm3 3.126v-8.594h1.062v8.594h-1.062zm7.28-2l1.095.125q-.25.953-.953 1.484-.704.532-1.782.532-1.36 0-2.172-.844-.796-.844-.796-2.36 0-1.562.812-2.421.813-.875 2.094-.875 1.25 0 2.031.843.797.844.797 2.39v.282h-4.64q.062 1.031.577 1.578.516.532 1.297.532.578 0 .985-.297.422-.313.656-.97zm-3.452-1.703h3.469q-.063-.797-.391-1.188-.516-.61-1.313-.61-.734 0-1.234.485-.484.485-.531 1.313z"/><path fill="#9e9e9e" d="M552.497 68.672v1.016h-5.688q0-.375.125-.734.22-.579.688-1.141.484-.563 1.39-1.297 1.407-1.156 1.891-1.828.5-.672.5-1.266 0-.625-.453-1.047-.453-.437-1.172-.437-.765 0-1.219.453-.453.453-.468 1.266l-1.078-.11q.109-1.218.828-1.843.734-.641 1.968-.641 1.235 0 1.954.687.718.688.718 1.704 0 .515-.218 1.015-.204.485-.704 1.047-.484.547-1.609 1.5-.953.797-1.234 1.094-.266.281-.438.562h4.219zm1.453-3.218q0-1.532.313-2.454.312-.937.921-1.437.625-.5 1.563-.5.687 0 1.203.281.531.281.875.813.344.515.531 1.265.188.75.188 2.032 0 1.515-.313 2.437-.297.922-.922 1.438-.609.5-1.562.5-1.234 0-1.953-.891-.844-1.063-.844-3.484zm1.078 0q0 2.109.5 2.812.5.703 1.219.703.734 0 1.219-.703.5-.703.5-2.812 0-2.125-.5-2.813-.485-.703-1.235-.703-.718 0-1.156.61-.547.78-.547 2.906zm6.485 4.234v-1.203h1.203v1.203q0 .656-.235 1.062-.234.422-.734.641l-.297-.453q.328-.14.484-.438.157-.28.188-.812h-.61zm2.437-4.234q0-1.532.313-2.454.312-.937.921-1.437.625-.5 1.563-.5.687 0 1.203.281.531.281.875.813.344.515.531 1.265.188.75.188 2.032 0 1.515-.313 2.437-.297.922-.922 1.438-.609.5-1.562.5-1.234 0-1.953-.891-.844-1.063-.844-3.484zm1.078 0q0 2.109.5 2.812.5.703 1.219.703.734 0 1.219-.703.5-.703.5-2.812 0-2.125-.5-2.813-.485-.703-1.235-.703-.718 0-1.156.61-.547.78-.547 2.906zm6.125-2.297q0-.922.453-1.563.469-.64 1.344-.64.813 0 1.344.578.531.578.531 1.687 0 1.094-.547 1.688-.531.578-1.312.578-.782 0-1.297-.578-.516-.578-.516-1.75zm1.828-1.485q-.39 0-.656.344-.25.344-.25 1.25 0 .828.25 1.172.266.328.656.328.407 0 .657-.344.265-.343.265-1.234 0-.844-.265-1.172-.266-.344-.657-.344zm0 8.328l4.703-9.046h.86L573.856 70h-.875zm3.719-2.328q0-.922.453-1.562.469-.64 1.36-.64.812 0 1.343.577.532.563.532 1.688 0 1.094-.547 1.687-.532.578-1.328.578-.766 0-1.297-.578-.516-.578-.516-1.75zm1.844-1.484q-.406 0-.672.344-.25.343-.25 1.25 0 .812.266 1.156.265.344.656.344.39 0 .656-.344t.266-1.25q0-.828-.266-1.156-.266-.344-.656-.344z"/><path stroke="#757575" stroke-linecap="butt" d="M581.45 57.188H393.224"/><path fill="#9e9e9e" d="M395.224 57.188a2 2 0 10-4 0 2 2 0 004 0"/><path fill="#1a1a1a" d="M485.56 205.81v-7.577h-2.829v-1.016h6.813v1.016H486.7v7.578h-1.14zm8.937-2l1.094.126q-.25.953-.954 1.484-.703.532-1.78.532-1.36 0-2.173-.844-.797-.844-.797-2.36 0-1.562.813-2.421.813-.875 2.094-.875 1.25 0 2.031.843.797.844.797 2.39v.282h-4.64q.062 1.031.577 1.578.516.532 1.297.532.578 0 .985-.297.421-.313.656-.97zm-3.453-1.702h3.469q-.063-.797-.391-1.188-.516-.61-1.313-.61-.734 0-1.234.485-.484.485-.531 1.313zm10.265 2.937q-.593.5-1.14.703-.531.204-1.156.204-1.032 0-1.579-.5-.547-.5-.547-1.282 0-.453.204-.828.203-.39.546-.61.344-.234.766-.343.297-.094.938-.172 1.265-.14 1.875-.36v-.265q0-.656-.297-.922-.406-.343-1.203-.343-.735 0-1.094.265-.36.25-.531.906l-1.032-.14q.141-.656.47-1.063.327-.406.937-.625.609-.218 1.406-.218.797 0 1.297.187.5.188.734.469.234.281.328.719.047.265.047.968v1.407q0 1.468.063 1.859.078.39.28.75h-1.108q-.157-.328-.204-.766zm-.093-2.36q-.579.235-1.72.407-.655.094-.921.219-.266.11-.422.328-.14.219-.14.5 0 .422.312.703.328.281.938.281.609 0 1.078-.265.484-.266.703-.735.172-.359.172-1.046v-.391zm3.03 3.126v-6.219h.938v.875q.297-.469.782-.734.484-.281 1.109-.281.688 0 1.125.28.453.282.625.798.75-1.078 1.922-1.078.937 0 1.422.515.5.5.5 1.578v4.266h-1.047v-3.922q0-.625-.11-.906-.093-.281-.359-.453t-.64-.172q-.657 0-1.094.437-.422.438-.422 1.407v3.609h-1.063v-4.047q0-.703-.265-1.047-.25-.36-.828-.36-.454 0-.829.235-.375.235-.546.688-.172.453-.172 1.297v3.234h-1.047zm18.063-.766q-.593.5-1.14.703-.531.204-1.156.204-1.032 0-1.579-.5-.546-.5-.546-1.282 0-.453.203-.828.203-.39.547-.61.343-.234.765-.343.297-.094.938-.172 1.265-.14 1.875-.36v-.265q0-.656-.297-.922-.406-.343-1.203-.343-.735 0-1.094.265-.36.25-.531.906l-1.032-.14q.141-.656.47-1.063.327-.406.937-.625.609-.218 1.406-.218.797 0 1.297.187.5.188.734.469.235.281.328.719.047.265.047.968v1.407q0 1.468.063 1.859.078.39.28.75h-1.108q-.157-.328-.204-.766zm-.093-2.36q-.578.235-1.72.407-.655.094-.921.219-.266.11-.422.328-.14.219-.14.5 0 .422.312.703.328.281.938.281.609 0 1.078-.265.484-.266.703-.735.172-.359.172-1.046v-.391zm3.03 3.126v-6.219h.938v.875q.688-1.015 1.985-1.015.562 0 1.031.203.484.203.719.53.234.329.328.767.047.296.047 1.03v3.829h-1.047v-3.781q0-.657-.125-.97-.125-.312-.438-.5-.312-.202-.734-.202-.672 0-1.172.437-.484.422-.484 1.61v3.406h-1.047zm11.032 0v-.781q-.594.922-1.734.922-.75 0-1.375-.407-.625-.422-.969-1.156t-.344-1.687q0-.922.313-1.688.312-.766.937-1.156.625-.406 1.39-.406.563 0 1 .234.438.234.72.61v-3.079h1.047v8.594h-.985zm-3.328-3.11q0 1.204.5 1.797.5.579 1.188.579.687 0 1.171-.563.485-.562.485-1.719 0-1.281-.5-1.875-.485-.593-1.203-.593-.703 0-1.172.578-.469.562-.469 1.797zm13.36 2.344q-.594.5-1.141.703-.531.204-1.156.204-1.032 0-1.579-.5-.546-.5-.546-1.282 0-.453.203-.828.203-.39.547-.61.343-.234.765-.343.297-.094.938-.172 1.265-.14 1.875-.36v-.265q0-.656-.297-.922-.406-.343-1.203-.343-.735 0-1.094.265-.36.25-.531.906l-1.032-.14q.141-.656.47-1.063.327-.406.937-.625.609-.218 1.406-.218.797 0 1.297.187.5.188.734.469.235.281.328.719.047.265.047.968v1.407q0 1.468.063 1.859.078.39.28.75h-1.108q-.157-.328-.204-.766zm-.094-2.36q-.578.235-1.72.407-.655.094-.921.219-.266.11-.422.328-.14.219-.14.5 0 .422.312.703.328.281.938.281.609 0 1.078-.265.484-.266.703-.735.172-.359.172-1.046v-.391zm7.062 3.126v-.781q-.594.922-1.734.922-.75 0-1.375-.407-.625-.422-.969-1.156t-.344-1.687q0-.922.313-1.688.312-.766.937-1.156.625-.406 1.39-.406.563 0 1 .234.438.234.72.61v-3.079h1.047v8.594h-.985zm-3.328-3.11q0 1.204.5 1.797.5.579 1.188.579.687 0 1.171-.563.485-.562.485-1.719 0-1.281-.5-1.875-.485-.593-1.203-.593-.703 0-1.172.578-.469.562-.469 1.797zm8.016 3.11l-2.36-6.219h1.11l1.343 3.719q.204.61.391 1.25.14-.484.39-1.172l1.391-3.797h1.078l-2.359 6.219h-.984zm3.28-7.375v-1.219h1.063v1.219h-1.062zm0 7.375v-6.219h1.063v6.219h-1.062zm2.579-1.86l1.031-.156q.094.625.485.953.406.329 1.14.329.719 0 1.063-.282.36-.297.36-.703 0-.36-.313-.562-.22-.141-1.078-.36-1.157-.297-1.61-.5-.437-.218-.672-.593-.234-.375-.234-.844 0-.406.187-.766.188-.36.516-.594.25-.171.672-.296.422-.125.922-.125.719 0 1.265.218.563.203.829.563.265.36.359.953l-1.031.14q-.063-.468-.407-.734-.328-.281-.953-.281-.718 0-1.031.25-.313.234-.313.562 0 .204.126.36.14.172.406.281.156.063.937.266 1.125.312 1.563.5.437.187.687.547.25.359.25.906 0 .531-.312 1-.297.453-.875.719-.578.25-1.313.25-1.218 0-1.86-.5-.624-.516-.796-1.5zm7.031-1.25q0-1.734.953-2.562.797-.687 1.954-.687 1.28 0 2.093.843.828.828.828 2.313 0 1.203-.359 1.89-.36.688-1.063 1.079-.687.375-1.5.375-1.296 0-2.109-.829-.797-.843-.797-2.421zm1.078 0q0 1.188.516 1.782.531.594 1.313.594.796 0 1.312-.594t.516-1.813q0-1.156-.532-1.75-.515-.593-1.296-.593-.782 0-1.313.593-.516.578-.516 1.782zm6.297 3.11v-6.219h.953v.938q.36-.657.657-.86.312-.218.687-.218.531 0 1.078.328l-.36.984q-.39-.234-.765-.234-.36 0-.64.218-.266.204-.375.579-.188.562-.188 1.218v3.266h-1.047z"/><path fill="#9e9e9e" d="M550.919 222.81h-1.047v-6.718q-.39.36-1.016.735-.61.359-1.093.53v-1.015q.875-.422 1.53-1 .673-.594.954-1.156h.672v8.625zm3.031-2.25l1.11-.093q.124.813.562 1.219.453.406 1.094.406.75 0 1.28-.578.532-.578.532-1.516 0-.906-.515-1.421-.5-.532-1.329-.532-.5 0-.921.235-.407.234-.641.593l-.984-.125.828-4.406h4.28v1h-3.437l-.453 2.313q.766-.547 1.61-.547 1.125 0 1.89.781.782.781.782 2.016 0 1.156-.672 2.015-.828 1.032-2.25 1.032-1.172 0-1.922-.657-.735-.656-.844-1.734zm7.563 2.25v-1.202h1.203v1.203q0 .656-.235 1.062-.234.422-.734.641l-.297-.453q.328-.14.484-.438.157-.28.188-.812h-.61zm2.437-4.233q0-1.532.313-2.454.312-.937.921-1.437.625-.5 1.563-.5.687 0 1.203.281.531.281.875.813.344.515.531 1.265.188.75.188 2.032 0 1.515-.313 2.437-.297.922-.922 1.438-.609.5-1.562.5-1.234 0-1.953-.891-.844-1.063-.844-3.484zm1.078 0q0 2.109.5 2.812.5.703 1.219.703.734 0 1.219-.703.5-.703.5-2.812 0-2.125-.5-2.813-.485-.703-1.235-.703-.718 0-1.156.61-.547.78-.547 2.906zm6.125-2.297q0-.922.453-1.563.469-.64 1.344-.64.813 0 1.344.578.531.578.531 1.687 0 1.094-.547 1.688-.531.578-1.312.578-.782 0-1.297-.578-.516-.578-.516-1.75zm1.828-1.485q-.39 0-.656.344-.25.344-.25 1.25 0 .828.25 1.172.266.328.656.328.407 0 .657-.344.265-.343.265-1.234 0-.844-.265-1.172-.266-.344-.657-.344zm0 8.328l4.703-9.046h.86l-4.688 9.046h-.875zm3.719-2.328q0-.922.453-1.562.469-.64 1.36-.64.812 0 1.343.577.532.563.532 1.688 0 1.094-.547 1.687-.532.578-1.328.578-.766 0-1.297-.578-.516-.578-.516-1.75zm1.844-1.484q-.406 0-.672.344-.25.343-.25 1.25 0 .812.266 1.156.265.344.656.344.39 0 .656-.344t.266-1.25q0-.828-.266-1.156-.266-.344-.656-.344z"/><path stroke="#757575" stroke-linecap="butt" d="M581.45 210.31h-124.8"/><path fill="#9e9e9e" d="M458.65 210.31a2 2 0 10-4 0 2 2 0 004 0"/><path fill="#1a1a1a" d="M536.388 332.45v-8.594h3.812q1.156 0 1.75.235.594.234.953.828.36.578.36 1.281 0 .922-.594 1.547-.594.625-1.828.797.453.219.687.422.5.453.938 1.14l1.5 2.344h-1.438l-1.125-1.781q-.5-.781-.828-1.188-.313-.406-.578-.562-.25-.172-.516-.25-.187-.031-.625-.031h-1.328v3.812h-1.14zm1.14-4.797h2.453q.766 0 1.203-.156.454-.172.672-.516.235-.36.235-.781 0-.61-.453-1-.438-.39-1.391-.39h-2.719v2.843zm11.969 2.797l1.094.125q-.25.953-.953 1.484-.704.532-1.782.532-1.36 0-2.172-.844-.796-.844-.796-2.36 0-1.562.812-2.421.813-.875 2.094-.875 1.25 0 2.031.843.797.844.797 2.391v.281h-4.64q.062 1.031.577 1.578.516.532 1.297.532.578 0 .985-.297.422-.313.656-.969zm-3.453-1.703h3.469q-.063-.797-.391-1.188-.516-.609-1.313-.609-.734 0-1.234.484-.484.485-.531 1.313zm5.781 1.844l1.031-.157q.094.625.485.953.406.329 1.14.329.719 0 1.063-.282.36-.297.36-.703 0-.36-.313-.562-.22-.14-1.078-.36-1.157-.297-1.61-.5-.437-.218-.672-.593-.234-.375-.234-.844 0-.406.187-.766.188-.36.516-.594.25-.171.672-.296.422-.125.922-.125.719 0 1.265.218.563.203.829.563.265.36.359.953l-1.031.14q-.063-.468-.407-.734-.328-.281-.953-.281-.718 0-1.031.25-.313.234-.313.563 0 .203.126.359.14.172.406.281.156.063.937.266 1.125.312 1.563.5.437.187.687.547.25.359.25.906 0 .531-.312 1-.297.453-.875.719-.578.25-1.313.25-1.218 0-1.86-.5-.624-.516-.796-1.5zm11.672-.141l1.094.125q-.25.953-.953 1.484-.704.532-1.782.532-1.36 0-2.172-.844-.796-.844-.796-2.36 0-1.562.812-2.421.813-.875 2.094-.875 1.25 0 2.031.843.797.844.797 2.391v.281h-4.64q.062 1.031.577 1.578.516.532 1.297.532.578 0 .985-.297.422-.313.656-.969zm-3.453-1.703h3.469q-.063-.797-.391-1.188-.516-.609-1.313-.609-.734 0-1.234.484-.484.485-.531 1.313zm6.187 3.703v-6.219h.953v.938q.36-.656.657-.86.312-.218.687-.218.531 0 1.078.328l-.36.984q-.39-.234-.765-.234-.36 0-.64.219-.266.203-.375.578-.188.562-.188 1.218v3.266h-1.047zm5.735 0l-2.36-6.219h1.11l1.343 3.719q.204.61.391 1.25.14-.484.39-1.172l1.391-3.797h1.078l-2.359 6.219h-.984zm7.53-2l1.095.125q-.25.953-.953 1.484-.704.532-1.782.532-1.36 0-2.172-.844-.796-.844-.796-2.36 0-1.562.812-2.421.813-.875 2.094-.875 1.25 0 2.031.843.797.844.797 2.391v.281h-4.64q.062 1.031.577 1.578.516.532 1.297.532.578 0 .985-.297.422-.313.656-.969zm-3.452-1.703h3.469q-.063-.797-.391-1.188-.516-.609-1.313-.609-.734 0-1.234.484-.484.485-.531 1.313z"/><path fill="#9e9e9e" d="M546.95 347.184l1.063-.14q.171.89.609 1.297.437.39 1.062.39.75 0 1.266-.515.516-.516.516-1.282 0-.718-.485-1.187-.468-.485-1.203-.485-.297 0-.75.125l.125-.937q.11.016.172.016.672 0 1.203-.344.547-.36.547-1.094 0-.578-.39-.953-.391-.39-1.016-.39-.61 0-1.031.39-.407.39-.516 1.156l-1.063-.187q.188-1.047.875-1.625.688-.594 1.704-.594.703 0 1.296.313.594.296.907.812.312.516.312 1.11 0 .546-.297 1.015-.297.453-.875.719.75.172 1.172.734.422.547.422 1.39 0 1.126-.828 1.907-.813.781-2.063.781-1.125 0-1.875-.672-.75-.687-.859-1.75zm7-1.968q0-1.532.313-2.454.312-.937.921-1.437.625-.5 1.563-.5.687 0 1.203.281.531.281.875.813.344.515.531 1.265.188.75.188 2.032 0 1.515-.313 2.437-.297.922-.922 1.438-.609.5-1.562.5-1.234 0-1.953-.891-.844-1.063-.844-3.484zm1.078 0q0 2.109.5 2.812.5.703 1.219.703.734 0 1.219-.703.5-.703.5-2.812 0-2.125-.5-2.813-.485-.703-1.235-.703-.718 0-1.156.61-.547.78-.547 2.906zm6.485 4.234v-1.203h1.203v1.203q0 .656-.235 1.063-.234.421-.734.64l-.297-.453q.328-.14.484-.438.157-.28.188-.812h-.61zm2.437-4.234q0-1.532.313-2.454.312-.937.921-1.437.625-.5 1.563-.5.687 0 1.203.281.531.281.875.813.344.515.531 1.265.188.75.188 2.032 0 1.515-.313 2.437-.297.922-.922 1.438-.609.5-1.562.5-1.234 0-1.953-.891-.844-1.063-.844-3.484zm1.078 0q0 2.109.5 2.812.5.703 1.219.703.734 0 1.219-.703.5-.703.5-2.812 0-2.125-.5-2.813-.485-.703-1.235-.703-.718 0-1.156.61-.547.78-.547 2.906zm6.125-2.297q0-.922.453-1.563.469-.64 1.344-.64.813 0 1.344.578.531.578.531 1.687 0 1.094-.547 1.688-.531.578-1.312.578-.782 0-1.297-.578-.516-.578-.516-1.75zm1.828-1.485q-.39 0-.656.344-.25.344-.25 1.25 0 .828.25 1.172.266.328.656.328.407 0 .657-.344.265-.343.265-1.234 0-.844-.265-1.172-.266-.344-.657-.344zm0 8.328l4.703-9.046h.86l-4.688 9.046h-.875zm3.719-2.328q0-.922.453-1.562.469-.64 1.36-.64.812 0 1.343.577.532.563.532 1.688 0 1.094-.547 1.687-.532.578-1.328.578-.766 0-1.297-.578-.516-.578-.516-1.75zm1.844-1.484q-.406 0-.672.344-.25.344-.25 1.25 0 .812.266 1.156.265.344.656.344.39 0 .656-.344t.266-1.25q0-.828-.266-1.156-.266-.344-.656-.344z"/><path stroke="#757575" stroke-linecap="butt" d="M581.45 336.95h-108.5L300 344.103"/><path fill="#9e9e9e" d="M302 344.103a2 2 0 10-4 0 2 2 0 004 0"/></symbol>
<symbol id="i-crafting-mining" viewBox="0 0 32 32" fill="none" xmlns="http://www.w3.org/2000/svg"><path d="M12 13.333H2.667A1.334 1.334 0 011.333 12V2.667a1.333 1.333 0 011.334-1.334H12a1.333 1.333 0 011.333 1.334V12A1.334 1.334 0 0112 13.333zM12 30.667H2.667a1.333 1.333 0 01-1.334-1.334V20a1.333 1.333 0 011.334-1.333H12A1.334 1.334 0 0113.333 20v9.333A1.333 1.333 0 0112 30.667z" fill="#8C30F5"/><path d="M17.333 2.667h13.334v2.666H17.333V2.667zM30.667 20H17.333v2.667h13.334V20z" fill="#2EC5CE"/><path d="M30.667 26.667H17.333v2.666h13.334v-2.666zM30.667 9.333H17.333V12h13.334V9.333z" fill="#D6B1FF"/></symbol>
<symbol id="i-get-started" viewBox="0 0 257 48" fill="none" xmlns="http://www.w3.org/2000/svg"><circle cx="24" cy="24" r="23" stroke="#F4F5F7" stroke-width="2"/><path clip-rule="evenodd" d="M20.227 17.2a.344.344 0 00-.335-.025.296.296 0 00-.176.266V30.56c0 .112.068.215.176.265a.343.343 0 00.335-.025l9.643-6.559a.292.292 0 00.131-.24.292.292 0 00-.13-.241l-9.644-6.56z" stroke="#F4F5F7" stroke-width="2"/><path stroke="#F4F5F7" stroke-width="2" d="M56 23h80"/><path d="M149.18 29.21c.971 0 1.813-.21 2.527-.63a4.361 4.361 0 001.659-1.757c.392-.747.588-1.603.588-2.569l-.007-.266a3.29 3.29 0 00-.021-.322H150.3v1.47h1.596c-.154.798-.462 1.381-.924 1.75-.457.369-1.013.546-1.666.532-.957-.014-1.675-.331-2.156-.952-.476-.62-.714-1.456-.714-2.506 0-1.05.238-1.892.714-2.527.481-.635 1.199-.945 2.156-.931.644.005 1.171.184 1.582.539.415.35.714.819.896 1.407l1.946-.28c-.252-1.101-.749-1.953-1.491-2.555-.742-.602-1.762-.903-3.059-.903-.877 0-1.678.205-2.401.616-.719.41-1.293 1.008-1.722 1.792-.425.78-.637 1.727-.637 2.842 0 .854.126 1.608.378 2.261.257.653.604 1.202 1.043 1.645.443.443.952.78 1.526 1.008a4.941 4.941 0 001.813.336zm8.177-.21h6.58v-1.778h-4.676v-2.59h3.836v-1.778h-3.836v-2.156h4.676V18.92h-6.58V29zm12.596 0h1.904v-8.302h3.178V18.92h-8.26v1.778h3.178V29zm16.394.21a5.66 5.66 0 001.491-.196c.485-.13.919-.327 1.302-.588.382-.266.686-.6.91-1.001.228-.406.343-.88.343-1.421 0-.509-.096-.929-.287-1.26a2.34 2.34 0 00-.721-.798 3.71 3.71 0 00-.91-.476c-.318-.117-.607-.21-.868-.28l-1.75-.476a4.95 4.95 0 01-.63-.21 1.522 1.522 0 01-.511-.329.74.74 0 01-.203-.539c0-.238.081-.443.245-.616.168-.173.382-.303.644-.392.266-.093.548-.135.847-.126.457.014.877.15 1.26.406.382.257.63.63.742 1.12l2.058-.35c-.243-.947-.714-1.673-1.414-2.177s-1.573-.763-2.618-.777a5.118 5.118 0 00-1.89.322 3.04 3.04 0 00-1.365 1.001c-.341.448-.511 1.01-.511 1.687 0 .48.079.88.238 1.197.163.313.366.565.609.756.242.191.492.338.749.441.261.103.49.182.686.238l2.618.77c.392.117.653.264.784.441.13.173.196.362.196.567 0 .28-.096.516-.287.707a1.77 1.77 0 01-.721.434 2.862 2.862 0 01-.91.147c-.56 0-1.06-.156-1.498-.469-.439-.313-.728-.758-.868-1.337l-1.988.294c.102.681.345 1.27.728 1.764.387.49.879.868 1.477 1.134.602.261 1.276.392 2.023.392zm9.922-.21h1.904v-8.302h3.178V18.92h-8.26v1.778h3.178V29zm7.234 0h1.96l.637-2.1h3.794l.651 2.1h1.96l-3.08-10.08h-2.842L203.503 29zm3.136-3.878l1.344-4.417 1.365 4.417h-2.709zm9.12 3.878h1.904v-3.416h2.121L221.443 29h2.156l-1.82-3.738c.574-.261.997-.656 1.267-1.183.276-.532.413-1.141.413-1.827 0-.85-.207-1.573-.623-2.17-.415-.597-1.075-.966-1.981-1.106a3.052 3.052 0 00-.448-.042 7.24 7.24 0 00-.392-.014h-4.256V29zm1.904-5.194v-3.108h2.268c.098 0 .206.005.322.014.117.01.224.028.322.056.257.07.455.189.595.357.14.163.236.348.287.553.056.2.084.392.084.574 0 .182-.028.376-.084.581-.051.2-.147.385-.287.553a1.16 1.16 0 01-.595.35 1.644 1.644 0 01-.322.056c-.116.01-.224.014-.322.014h-2.268zM229.476 29h1.904v-8.302h3.178V18.92h-8.26v1.778h3.178V29zm8.207 0h6.58v-1.778h-4.676v-2.59h3.836v-1.778h-3.836v-2.156h4.676V18.92h-6.58V29zm10.258 0h3.262c.079 0 .243-.002.49-.007s.485-.021.714-.049c.812-.098 1.5-.38 2.065-.847a4.442 4.442 0 001.288-1.778 6.172 6.172 0 00.441-2.359c0-.854-.147-1.64-.441-2.359a4.442 4.442 0 00-1.288-1.778c-.565-.467-1.253-.749-2.065-.847a6.978 6.978 0 00-.714-.049 32.506 32.506 0 00-.49-.007h-3.262V29zm1.932-1.792v-6.496h1.33c.126 0 .296.002.511.007.215.005.408.026.581.063.425.084.777.282 1.057.595.28.313.488.695.623 1.148.14.453.21.931.21 1.435 0 .48-.068.947-.203 1.4-.131.453-.336.84-.616 1.162a1.844 1.844 0 01-1.071.616 4.091 4.091 0 01-.581.063c-.215.005-.385.007-.511.007h-1.33z" fill="#F4F5F7"/></symbol>
<symbol id="i-google-badge" viewBox="0 0 135 40" fill="none" xmlns="http://www.w3.org/2000/svg"><g clip-path="url(#clip0)"><path d="M130 0H5a5 5 0 00-5 5v30a5 5 0 005 5h125a5 5 0 005-5V5a5 5 0 00-5-5z" fill="#000"/><path d="M130 .8a4.202 4.202 0 014.2 4.2v30a4.202 4.202 0 01-4.2 4.2H5A4.205 4.205 0 01.8 35V5A4.205 4.205 0 015 .8h125zm0-.8H5a5.015 5.015 0 00-5 5v30a5.015 5.015 0 005 5h125a5.015 5.015 0 005-5V5a5.015 5.015 0 00-5-5z" fill="#A6A6A6"/><path d="M47.418 10.243a2.707 2.707 0 01-.745 2.003 2.909 2.909 0 01-2.204.887A3.091 3.091 0 0141.352 10a3.092 3.092 0 013.117-3.135c.423 0 .843.085 1.232.252.36.146.682.376.938.67l-.527.528a2.026 2.026 0 00-1.643-.712A2.32 2.32 0 0042.14 10a2.36 2.36 0 004.006 1.726c.308-.332.486-.763.503-1.215h-2.179v-.72h2.907c.028.148.042.3.042.452zM52.028 7.737h-2.733v1.902h2.464v.72h-2.464v1.903h2.733V13h-3.503V7h3.503v.738zM55.279 13h-.772V7.736h-1.676V7h4.123v.737H55.28v5.262zM59.938 13V7h.77v6h-.77zM64.128 13h-.771V7.736H61.68V7h4.123v.737h-1.676v5.262zM73.61 12.224a3.115 3.115 0 01-4.4 0A3.068 3.068 0 0168.326 10a3.068 3.068 0 01.884-2.225 3.105 3.105 0 014.395.004 3.068 3.068 0 01.888 2.22 3.072 3.072 0 01-.884 2.225zm-3.83-.502a2.307 2.307 0 003.259 0A2.347 2.347 0 0073.706 10a2.349 2.349 0 00-.667-1.723 2.307 2.307 0 00-3.26 0A2.35 2.35 0 0069.113 10a2.35 2.35 0 00.666 1.722zM75.575 13V7h.939l2.916 4.667h.033l-.033-1.156V7h.771v6h-.805l-3.05-4.894h-.034l.034 1.156V13h-.77z" fill="#fff" stroke="#fff" stroke-width=".2" stroke-miterlimit="10"/><path d="M68.136 21.751a4.254 4.254 0 104.269 4.253 4.192 4.192 0 00-4.27-4.253zm0 6.831a2.584 2.584 0 112.4-2.578 2.46 2.46 0 01-2.4 2.578zm-9.314-6.83a4.253 4.253 0 104.27 4.252 4.192 4.192 0 00-4.27-4.253zm0 6.83a2.584 2.584 0 112.4-2.578 2.46 2.46 0 01-2.4 2.578zm-11.079-5.526v1.804h4.318a3.766 3.766 0 01-.983 2.272 4.42 4.42 0 01-3.335 1.321 4.801 4.801 0 010-9.602 4.602 4.602 0 013.255 1.29l1.273-1.274a6.295 6.295 0 00-4.528-1.82 6.607 6.607 0 100 13.21 6.037 6.037 0 004.608-1.852 5.961 5.961 0 001.563-4.221 5.858 5.858 0 00-.097-1.128h-6.074zm45.309 1.402a3.953 3.953 0 00-3.641-2.707 4.043 4.043 0 00-4.012 4.253 4.162 4.162 0 004.221 4.253 4.23 4.23 0 003.544-1.884l-1.45-.967a2.43 2.43 0 01-2.094 1.176 2.164 2.164 0 01-2.062-1.289l5.687-2.352-.193-.483zm-5.8 1.418a2.333 2.333 0 012.223-2.482 1.647 1.647 0 011.58.903l-3.803 1.578zM82.628 30h1.87V17.498h-1.87V30zm-3.06-7.298h-.065a2.948 2.948 0 00-2.24-.95 4.257 4.257 0 000 8.506 2.899 2.899 0 002.24-.967h.064v.612c0 1.627-.87 2.497-2.271 2.497a2.353 2.353 0 01-2.143-1.514l-1.627.677a4.053 4.053 0 003.77 2.513c2.19 0 4.043-1.29 4.043-4.43v-7.637h-1.772v.693zm-2.143 5.88a2.587 2.587 0 010-5.155 2.397 2.397 0 012.271 2.593 2.375 2.375 0 01-2.271 2.562zm24.381-11.084h-4.471V30H99.2v-4.737h2.606a3.886 3.886 0 003.784-5.42 3.886 3.886 0 00-3.784-2.345zm.048 6.025H99.2v-4.285h2.654a2.149 2.149 0 011.544.612 2.132 2.132 0 01.643 1.53 2.133 2.133 0 01-.643 1.532 2.146 2.146 0 01-1.544.611zm11.532-1.795a3.508 3.508 0 00-3.33 1.914l1.657.692a1.766 1.766 0 011.705-.917 1.797 1.797 0 011.962 1.608v.129a4.13 4.13 0 00-1.946-.483c-1.785 0-3.603.982-3.603 2.815a2.893 2.893 0 001.964 2.608 2.89 2.89 0 001.14.142 2.63 2.63 0 002.381-1.222h.064v.965h1.801v-4.793c0-2.22-1.656-3.458-3.795-3.458zm-.226 6.852c-.611 0-1.463-.306-1.463-1.062 0-.965 1.061-1.335 1.978-1.335a3.326 3.326 0 011.705.418 2.264 2.264 0 01-2.22 1.979zm10.583-6.578l-2.139 5.42h-.064l-2.22-5.42h-2.01l3.329 7.575-1.898 4.214h1.946L125.818 22h-2.075zM106.936 30h1.866V17.498h-1.866V30z" fill="#fff"/><path d="M10.435 7.538a2.002 2.002 0 00-.462 1.405v22.116c-.031.51.134 1.013.462 1.405l.074.072 12.39-12.39v-.291l-12.39-12.39-.074.073z" fill="url(#paint0_linear)"/><path d="M27.028 24.278l-4.13-4.131v-.292l4.13-4.13.094.052 4.893 2.78c1.397.794 1.397 2.094 0 2.888l-4.893 2.78-.094.053z" fill="url(#paint1_linear)"/><path d="M27.122 24.225L22.898 20 10.435 32.464a1.626 1.626 0 002.078.061l14.609-8.3z" fill="url(#paint2_linear)"/><path d="M27.122 15.777l-14.609-8.3a1.627 1.627 0 00-2.078.06l12.463 12.464 4.224-4.224z" fill="url(#paint3_linear)"/><path opacity=".2" d="M27.029 24.132l-14.516 8.247a1.666 1.666 0 01-2.003.01l-.075.075.074.072a1.665 1.665 0 002.004-.011l14.609-8.3-.093-.093z" fill="#000"/><path opacity=".12" d="M10.435 32.318a2.003 2.003 0 01-.463-1.405v.146c-.03.51.135 1.013.463 1.405l.075-.074-.075-.072zM32.015 21.298l-4.986 2.834.093.092 4.893-2.78a1.754 1.754 0 001.048-1.443 1.862 1.862 0 01-1.048 1.297z" fill="#000"/><path opacity=".25" d="M12.513 7.623l19.502 11.08A1.86 1.86 0 0133.063 20a1.754 1.754 0 00-1.048-1.444L12.513 7.477c-1.397-.794-2.54-.135-2.54 1.466v.146c0-1.6 1.143-2.26 2.54-1.466z" fill="#fff"/></g></symbol>
<symbol id="i-logo-full" viewBox="0 0 1790 500" fill="none" xmlns="http://www.w3.org/2000/svg"><path d="M145.096 189.434L250 128.868l104.904 60.566v121.132L250 371.132l-104.904-60.566V189.434z" stroke="#fff" stroke-width="50"/><path d="M529.8 297H504V196.95h50.1c10.8 0 19.3 3.2 25.5 9.6 6.2 6.3 9.3 14.2 9.3 23.7 0 9.4-3.1 17.3-9.3 23.7-6.2 6.3-14.7 9.45-25.5 9.45h-24.3V297zm20.85-56.1c3.5 0 6.35-.95 8.55-2.85 2.3-1.9 3.45-4.5 3.45-7.8 0-3.4-1.15-6.05-3.45-7.95-2.2-1.9-5.05-2.85-8.55-2.85H529.8v21.45h20.85zm75.15 57.9c-11.9 0-21.45-3.7-28.65-11.1-7.2-7.4-10.8-16.4-10.8-27 0-10.6 3.6-19.55 10.8-26.85 7.2-7.4 16.75-11.1 28.65-11.1 12 0 21.6 3.7 28.8 11.1 7.2 7.3 10.8 16.25 10.8 26.85 0 10.6-3.6 19.6-10.8 27-7.2 7.4-16.8 11.1-28.8 11.1zm-11.55-25.35c2.8 3.3 6.65 4.95 11.55 4.95s8.75-1.65 11.55-4.95c2.9-3.4 4.35-7.65 4.35-12.75 0-5-1.45-9.15-4.35-12.45-2.8-3.4-6.65-5.1-11.55-5.1s-8.75 1.7-11.55 5.1c-2.7 3.3-4.05 7.45-4.05 12.45 0 5.1 1.35 9.35 4.05 12.75zM694.676 297h-23.1V196.95h23.1V297zm9.244 28.2l3.3-20.55c1.6.9 3.5 1.35 5.7 1.35 5.4 0 8.65-1.35 9.75-4.05l1.65-3.9-28.8-73.5h24.3l16.35 45.9 16.5-45.9h24.45l-32.7 82.8c-2.7 7.1-6.55 12-11.55 14.7-5 2.7-11.35 4.15-19.05 4.35-4 0-7.3-.4-9.9-1.2zm104.312 1.2c-12.6 0-23.3-3.6-32.1-10.8l10.05-16.5c5.2 5.6 12.55 8.4 22.05 8.4 4.8 0 9.05-1.25 12.75-3.75 3.8-2.5 5.7-6.8 5.7-12.9v-5.55c-6 7-13.15 10.5-21.45 10.5-9.3 0-16.95-3.15-22.95-9.45-6-6.4-9-15.45-9-27.15 0-11.6 2.95-20.55 8.85-26.85 6-6.4 13.7-9.6 23.1-9.6 8.7 0 15.85 3.45 21.45 10.35v-8.55h22.95v66c0 5.7-.9 10.7-2.7 15-1.7 4.4-3.9 7.85-6.6 10.35-2.7 2.6-5.95 4.7-9.75 6.3-3.8 1.7-7.5 2.8-11.1 3.3-3.6.6-7.35.9-11.25.9zm4.65-51c2.5 0 5.05-.6 7.65-1.8 2.7-1.2 4.75-2.75 6.15-4.65V249.6c-1.4-1.9-3.45-3.45-6.15-4.65-2.6-1.2-5.15-1.8-7.65-1.8-4.7 0-8.55 1.4-11.55 4.2-2.9 2.8-4.35 6.75-4.35 11.85 0 5.2 1.45 9.2 4.35 12 3 2.8 6.85 4.2 11.55 4.2zm82.326 23.4c-11.9 0-21.45-3.7-28.65-11.1-7.2-7.4-10.8-16.4-10.8-27 0-10.6 3.6-19.55 10.8-26.85 7.2-7.4 16.75-11.1 28.65-11.1 12 0 21.6 3.7 28.8 11.1 7.2 7.3 10.8 16.25 10.8 26.85 0 10.6-3.6 19.6-10.8 27-7.2 7.4-16.8 11.1-28.8 11.1zm-11.55-25.35c2.8 3.3 6.65 4.95 11.55 4.95s8.75-1.65 11.55-4.95c2.9-3.4 4.35-7.65 4.35-12.75 0-5-1.45-9.15-4.35-12.45-2.8-3.4-6.65-5.1-11.55-5.1s-8.75 1.7-11.55 5.1c-2.7 3.3-4.05 7.45-4.05 12.45 0 5.1 1.35 9.35 4.05 12.75zM1013.13 297h-23.096v-41.85c0-8-3.95-12-11.85-12-5.6 0-10.3 2.35-14.1 7.05V297h-23.1v-72.45h23.1v8.85c6.1-7.1 14.45-10.65 25.05-10.65 8 0 13.996 2.1 17.996 6.3 4 4.1 6 9.65 6 16.65V297zm82.77 0h-23.1v-8.7c-6.2 7-14.55 10.5-25.05 10.5-8 0-14-2-18-6-3.9-4.1-5.85-9.65-5.85-16.65v-51.6h23.1v42.15c0 7.8 4 11.7 12 11.7 5.5 0 10.1-2.35 13.8-7.05v-46.8h23.1V297zm125.07 0h-22.95v-44.1c0-6.5-3.2-9.75-9.6-9.75-5.2 0-9.55 2.35-13.05 7.05V297h-23.1v-44.1c0-6.5-3.2-9.75-9.6-9.75-4.8 0-9.1 2.35-12.9 7.05V297h-23.1v-72.45h23.1v8.85c1.9-2.5 5.05-4.9 9.45-7.2 4.4-2.3 9.2-3.45 14.4-3.45 10.7 0 17.55 4.3 20.55 12.9 2.3-3.5 5.7-6.5 10.2-9 4.6-2.6 9.55-3.9 14.85-3.9 6.9 0 12.25 1.85 16.05 5.55 3.8 3.6 5.7 9 5.7 16.2V297zm32.55-2.4c-2.8 2.8-6.1 4.2-9.9 4.2-3.8 0-7.1-1.4-9.9-4.2-2.8-2.8-4.2-6.1-4.2-9.9 0-3.8 1.4-7.1 4.2-9.9 2.8-2.8 6.1-4.2 9.9-4.2 3.8 0 7.1 1.4 9.9 4.2 2.8 2.8 4.2 6.1 4.2 9.9 0 3.8-1.4 7.1-4.2 9.9zm100.13-10.35c-10.1 9.7-22.85 14.55-38.25 14.55-15.4 0-28.2-4.85-38.4-14.55-10.1-9.7-15.15-22.1-15.15-37.2 0-15.1 5.05-27.5 15.15-37.2 10.2-9.7 23-14.55 38.4-14.55 15.4 0 28.15 4.85 38.25 14.55 10.1 9.7 15.15 22.1 15.15 37.2 0 15.1-5.05 27.5-15.15 37.2zM1315.4 276c8.1 0 14.65-2.75 19.65-8.25 5-5.5 7.5-12.4 7.5-20.7 0-8.3-2.5-15.2-7.5-20.7s-11.55-8.25-19.65-8.25c-8.2 0-14.8 2.75-19.8 8.25s-7.5 12.4-7.5 20.7c0 8.3 2.5 15.2 7.5 20.7s11.6 8.25 19.8 8.25zm131.94 21h-23.1v-41.85c0-8-3.95-12-11.85-12-5.6 0-10.3 2.35-14.1 7.05V297h-23.1v-72.45h23.1v8.85c6.1-7.1 14.45-10.65 25.05-10.65 8 0 14 2.1 18 6.3 4 4.1 6 9.65 6 16.65V297zm33.87 0h-23.1V196.95h23.1V297zm31.59-82.8c-2.5 2.6-5.6 3.9-9.3 3.9-3.7 0-6.85-1.3-9.45-3.9-2.5-2.6-3.75-5.75-3.75-9.45 0-3.7 1.25-6.8 3.75-9.3 2.6-2.6 5.75-3.9 9.45-3.9 3.7 0 6.8 1.3 9.3 3.9 2.6 2.5 3.9 5.6 3.9 9.3 0 3.7-1.3 6.85-3.9 9.45zm2.25 82.8h-23.1v-72.45h23.1V297zm82.9 0h-23.1v-41.85c0-8-3.95-12-11.85-12-5.6 0-10.3 2.35-14.1 7.05V297h-23.1v-72.45h23.1v8.85c6.1-7.1 14.45-10.65 25.05-10.65 8 0 14 2.1 18 6.3 4 4.1 6 9.65 6 16.65V297zm45.56 1.8c-11.4 0-20.85-3.45-28.35-10.35-7.5-7-11.25-16.25-11.25-27.75 0-10.7 3.6-19.7 10.8-27 7.3-7.3 16.55-10.95 27.75-10.95 10.9 0 19.8 3.7 26.7 11.1 6.9 7.3 10.35 17.05 10.35 29.25v4.95h-51.6c.7 3.6 2.65 6.65 5.85 9.15 3.2 2.5 7.3 3.75 12.3 3.75 2.8 0 6-.55 9.6-1.65 3.7-1.2 6.5-2.7 8.4-4.5l9.75 14.4c-3.5 3.1-8 5.5-13.5 7.2-5.4 1.6-11 2.4-16.8 2.4zm13.95-45.75c-.4-3.2-1.8-6.05-4.2-8.55-2.4-2.6-6-3.9-10.8-3.9-4.5 0-7.95 1.25-10.35 3.75-2.4 2.5-3.9 5.4-4.5 8.7h29.85z" fill="#fff"/></symbol>
<symbol id="i-logo" viewBox="0 0 500 500" fill="none" xmlns="http://www.w3.org/2000/svg"><path d="M145.096 189.434L250 128.868l104.904 60.566v121.132L250 371.132l-104.904-60.566V189.434z" stroke="#fff" stroke-width="50"/></symbol>
<symbol id="i-marketplace" viewBox="0 0 32 32" fill="none" xmlns="http://www.w3.org/2000/svg"><path d="M24 13.333h8L28 8l-4 5.333zm0 5.334h8L28 24l-4-5.333z" fill="#D6B1FF"/><path d="M1.333 0h8v32h-8A1.334 1.334 0 010 30.667V1.333A1.333 1.333 0 011.333 0z" fill="#8C30F5"/><path d="M12 0h8a1.333 1.333 0 011.333 1.333v29.334A1.333 1.333 0 0120 32h-8V0z" fill="#2EC5CE"/></symbol>
<symbol id="i-zones" viewBox="0 0 32 32" fill="none" xmlns="http://www.w3.org/2000/svg"><path d="M28 32H16a1.334 1.334 0 01-1.333-1.333V28A1.334 1.334 0 0116 26.667h12A1.334 1.334 0 0129.333 28v2.667A1.334 1.334 0 0128 32z" fill="#D6B1FF"/><path d="M28 0H4a1.333 1.333 0 00-1.333 1.333V4A1.333 1.333 0 004 5.333h24A1.333 1.333 0 0029.333 4V1.333A1.334 1.334 0 0028 0z" fill="#2EC5CE"/><path d="M28 8H4a1.333 1.333 0 00-1.333 1.333v13.334A1.333 1.333 0 004 24h24a1.334 1.334 0 001.333-1.333V9.333A1.334 1.334 0 0028 8z" fill="#8C30F5"/></symbol>
</svg>